<?xml version="1.0" encoding="UTF-8"?>
<svg version="1.1" xmlns="http://www.w3.org/2000/svg" width="500" height="500">
<path d="M0 0 C165 0 330 0 500 0 C500 165 500 330 500 500 C335 500 170 500 0 500 C0 335 0 170 0 0 Z " fill="#F4F0EA" transform="translate(0,0)"/>
<path d="M0 0 C8.89281882 -0.06960586 17.7855434 -0.12286485 26.67857552 -0.15543652 C30.80827605 -0.17107175 34.93778978 -0.19227061 39.06738281 -0.22631836 C43.05499983 -0.25898863 47.04243751 -0.27686913 51.03017807 -0.28463173 C52.54918108 -0.29016152 54.06817462 -0.30095992 55.58710098 -0.31719017 C57.71990177 -0.33906711 59.85196779 -0.34196275 61.98486328 -0.34057617 C63.1973172 -0.34723801 64.40977112 -0.35389984 65.65896606 -0.36076355 C69.99921677 0.10789504 73.61043332 1.3317769 76.4609375 4.75390625 C79 9.77777778 79 9.77777778 79 12 C79.66 12 80.32 12 81 12 C81.495 14.97 81.495 14.97 82 18 C82.66 18 83.32 18 84 18 C88.40774487 27.41002278 88.40774487 27.41002278 89 32 C89.66 32 90.32 32 91 32 C91.495 34.97 91.495 34.97 92 38 C92.66 38 93.32 38 94 38 C94.84026396 39.76755526 95.67198722 41.53917263 96.5 43.3125 C96.9640625 44.29863281 97.428125 45.28476563 97.90625 46.30078125 C99 49 99 49 99 52 C99.66 52 100.32 52 101 52 C105.40774487 61.41002278 105.40774487 61.41002278 106 66 C106.66 66 107.32 66 108 66 C108.33 67.98 108.66 69.96 109 72 C109.66 72 110.32 72 111 72 C115.40774487 81.41002278 115.40774487 81.41002278 116 86 C116.66 86 117.32 86 118 86 C118.67119549 87.4562545 119.33681807 88.91507867 120 90.375 C120.556875 91.59316406 120.556875 91.59316406 121.125 92.8359375 C122 95 122 95 122 97 C122.66 97 123.32 97 124 97 C124.99 101.455 124.99 101.455 126 106 C126.66 106 127.32 106 128 106 C128.33 107.98 128.66 109.96 129 112 C129.66 112 130.32 112 131 112 C131.33 113.65 131.66 115.3 132 117 C132.66 117 133.32 117 134 117 C134.99 120.96 134.99 120.96 136 125 C136.66 125 137.32 125 138 125 C138.33 126.98 138.66 128.96 139 131 C139.66 131 140.32 131 141 131 C142.25664978 133.90600261 143 135.79604584 143 139 C143.66 139 144.32 139 145 139 C145.33 140.65 145.66 142.3 146 144 C146.99 144 147.98 144 149 144 C149.12890625 143.42507812 149.2578125 142.85015625 149.390625 142.2578125 C151.82212513 133.2487928 157.0577313 124.65533003 161.40234375 116.45703125 C161.83853027 115.63315918 162.2747168 114.80928711 162.72412109 113.96044922 C163.59512259 112.31854309 164.46899808 110.67815727 165.34619141 109.03955078 C168.13618041 103.78723048 170.65764182 98.46658948 173 93 C173.66 93 174.32 93 175 93 C175.13728516 91.74316406 175.13728516 91.74316406 175.27734375 90.4609375 C176.10804213 86.4825658 177.68464343 83.1873497 179.5625 79.625 C179.89185547 78.98433594 180.22121094 78.34367187 180.56054688 77.68359375 C181.36639482 76.11861368 182.18218493 74.55875979 183 73 C183.66 73 184.32 73 185 73 C185.13728516 71.74316406 185.13728516 71.74316406 185.27734375 70.4609375 C186.10804213 66.4825658 187.68464343 63.1873497 189.5625 59.625 C189.89185547 58.98433594 190.22121094 58.34367187 190.56054688 57.68359375 C191.36639482 56.11861368 192.18218493 54.55875979 193 53 C193.66 53 194.32 53 195 53 C195.09361816 52.44892578 195.18723633 51.89785156 195.28369141 51.33007812 C196.42280497 45.41723725 198.41867889 40.71608273 201.375 35.5 C202.18579393 34.02334135 202.99441212 32.54548583 203.80078125 31.06640625 C204.18314941 30.36789551 204.56551758 29.66938477 204.95947266 28.94970703 C206.86014253 25.3882923 208.4436663 21.72166754 210 18 C210.66 18 211.32 18 212 18 C212.33 16.02 212.66 14.04 213 12 C213.66 12 214.32 12 215 12 C215.1546875 10.6696875 215.1546875 10.6696875 215.3125 9.3125 C216.02226833 5.89270713 216.92673667 3.79093141 219 1 C222.1720839 -0.0573613 224.43681327 -0.13309897 227.76904297 -0.14526367 C228.95392303 -0.15164352 230.1388031 -0.15802338 231.35958862 -0.16459656 C233.28147507 -0.16626579 233.28147507 -0.16626579 235.2421875 -0.16796875 C236.55784698 -0.17129715 237.87350647 -0.17462555 239.22903442 -0.17805481 C242.01483988 -0.18404157 244.80061434 -0.1858952 247.58642578 -0.18530273 C251.14959746 -0.1852012 254.71256949 -0.19884663 258.27569389 -0.21607494 C261.68119474 -0.22989381 265.08665898 -0.22928439 268.4921875 -0.23046875 C269.76939667 -0.23765427 271.04660583 -0.24483978 272.36251831 -0.25224304 C273.5537027 -0.24916641 274.74488708 -0.24608978 275.97216797 -0.24291992 C277.54078079 -0.24505745 277.54078079 -0.24505745 279.14108276 -0.24723816 C282.16642722 0.01439257 284.3175097 0.58270187 287 2 C288.66293296 6.76707449 287.58896745 10.32656632 286 15 C285.34 15 284.68 15 284 15 C283.855625 15.94875 283.71125 16.8975 283.5625 17.875 C283 21 283 21 282 23 C281.34 23 280.68 23 280 23 C279.67 24.98 279.34 26.96 279 29 C278.34 29 277.68 29 277 29 C276.67 30.98 276.34 32.96 276 35 C275.34 35 274.68 35 274 35 C273.9071875 36.175625 273.9071875 36.175625 273.8125 37.375 C272.69205958 42.37388803 270.37727963 46.48977225 268 51 C267.07836905 52.80998078 266.16152122 54.62240687 265.25 56.4375 C264.84265625 57.24058594 264.4353125 58.04367188 264.015625 58.87109375 C262.89738379 61.10273554 262.89738379 61.10273554 262 64 C261.34 64 260.68 64 260 64 C259.67 65.98 259.34 67.96 259 70 C258.34 70 257.68 70 257 70 C256.87753906 70.71542969 256.75507813 71.43085938 256.62890625 72.16796875 C255.98864625 75.05112713 255.06448444 77.58592473 253.9375 80.3125 C253.57527344 81.19550781 253.21304688 82.07851562 252.83984375 82.98828125 C252.56269531 83.65214844 252.28554688 84.31601563 252 85 C251.34 85 250.68 85 250 85 C249.67 86.65 249.34 88.3 249 90 C248.34 90 247.68 90 247 90 C246.67 91.98 246.34 93.96 246 96 C245.34 96 244.68 96 244 96 C243.9175 96.639375 243.835 97.27875 243.75 97.9375 C242.70479628 102.20541517 240.85908174 106.03107667 239 110 C238.34 110 237.68 110 237 110 C236.67 111.98 236.34 113.96 236 116 C235.34 116 234.68 116 234 116 C233.9071875 116.84175781 233.814375 117.68351562 233.71875 118.55078125 C232.90245436 122.46811307 231.36007896 125.68771288 229.5 129.1875 C226.98561051 133.97486955 226.98561051 133.97486955 225 139 C224.34 139 223.68 139 223 139 C222.67 140.98 222.34 142.96 222 145 C221.34 145 220.68 145 220 145 C219.75378906 145.98355469 219.50757813 146.96710938 219.25390625 147.98046875 C218.00036577 152.36620377 216.02954634 156.27436404 213.9375 160.3125 C213.57333984 161.02728516 213.20917969 161.74207031 212.83398438 162.47851562 C211.89424017 164.32152598 210.94760602 166.16101953 210 168 C209.67 168.66 209.34 169.32 209 170 C208.34 170 207.68 170 207 170 C206.34 172.97 205.68 175.94 205 179 C204.34 179 203.68 179 203 179 C202.91621094 179.66128906 202.83242187 180.32257813 202.74609375 181.00390625 C201.75577894 184.98072016 199.9591649 188.32208743 198.0625 191.9375 C195.65177409 196.55626109 193.49950707 200.98332451 192 206 C191.34 206 190.68 206 190 206 C189.01 209.96 189.01 209.96 188 214 C187.34 214 186.68 214 186 214 C185.67 215.98 185.34 217.96 185 220 C184.34 220 183.68 220 183 220 C182.938125 220.78375 182.87625 221.5675 182.8125 222.375 C181.69440611 227.36341891 179.38021104 231.50651748 177 236 C176.32972487 237.33152299 175.66173756 238.66421348 175 240 C174.34 240 173.68 240 173 240 C172.67 241.98 172.34 243.96 172 246 C171.34 246 170.68 246 170 246 C169.9175 246.804375 169.835 247.60875 169.75 248.4375 C168.65167078 253.65456377 166.37461825 258.2507635 164 263 C163.34 263 162.68 263 162 263 C161.87753906 263.54140625 161.75507813 264.0828125 161.62890625 264.640625 C160.88995118 267.41285397 159.93073846 270.05864417 158.9375 272.75 C158.57527344 273.73484375 158.21304688 274.7196875 157.83984375 275.734375 C157.56269531 276.48203125 157.28554687 277.2296875 157 278 C156.34 278 155.68 278 155 278 C155 278.99 155 279.98 155 281 C154.34 281 153.68 281 153 281 C152.34 283.97 151.68 286.94 151 290 C150.34 290 149.68 290 149 290 C148.87044922 291.01126953 148.87044922 291.01126953 148.73828125 292.04296875 C147.79969954 295.80226162 146.0581359 298.95412662 144.1875 302.3125 C143.45599736 303.64656903 142.72551816 304.98119978 141.99609375 306.31640625 C141.47378174 307.26990967 141.47378174 307.26990967 140.94091797 308.24267578 C139.79835578 310.37660486 138.76808477 312.5543714 137.75 314.75 C135.44821066 319.02475164 133.70986175 320.34333644 129.25775146 322.05314636 C125.91684293 323.0241693 123.22055233 323.25963832 119.75097656 323.2746582 C118.53661926 323.28419022 117.32226196 323.29372223 116.07110596 323.30354309 C114.77404724 323.30263168 113.47698853 323.30172028 112.140625 323.30078125 C110.78635528 323.30467165 109.43208677 323.30900703 108.07781982 323.31376648 C105.2502444 323.32120223 102.42279395 323.3209547 99.59521484 323.31567383 C95.96782217 323.30985268 92.34093572 323.32688573 88.71362686 323.3500185 C85.92212933 323.3647216 83.13075515 323.36563279 80.33922577 323.36250877 C78.35049698 323.36327266 76.36178733 323.37715659 74.37310791 323.39118958 C73.17135925 323.38496078 71.9696106 323.37873199 70.73144531 323.37231445 C69.67032532 323.37294388 68.60920532 323.3735733 67.51593018 323.3742218 C66.68567322 323.25072861 65.85541626 323.12723541 65 323 C63 320 63 320 63.125 316.8125 C64.13078703 312.43014224 65.82077228 308.90233802 68 305 C68.66 305 69.32 305 70 305 C70.66 302.36 71.32 299.72 72 297 C72.66 297 73.32 297 74 297 C74.33 295.02 74.66 293.04 75 291 C75.66 291 76.32 291 77 291 C77.66 288.36 78.32 285.72 79 283 C79.66 283 80.32 283 81 283 C81.33 281.35 81.66 279.7 82 278 C82.66 278 83.32 278 84 278 C84.0825 277.175 84.165 276.35 84.25 275.5 C85.16447269 271.23246079 86.92223178 267.80763106 89 264 C89.66 264 90.32 264 91 264 C91.0721875 263.35289062 91.144375 262.70578125 91.21875 262.0390625 C92.31468988 257.77585635 94.38381351 254.21427332 96.5 250.375 C97.32492077 248.8630709 98.14791939 247.35009106 98.96875 245.8359375 C99.51692383 244.83892822 99.51692383 244.83892822 100.07617188 243.82177734 C101.13071345 241.85290644 101.13071345 241.85290644 102 239 C102.66 239 103.32 239 104 239 C104.28875 237.741875 104.5775 236.48375 104.875 235.1875 C105.57303539 232.1460601 106.20446585 230.69330122 108 228 C108.66 228 109.32 228 110 228 C110.90413673 224.16275828 111.10576898 220.62497726 111.0625 216.6875 C111.05347656 215.61886719 111.04445313 214.55023438 111.03515625 213.44921875 C111.02355469 212.64097656 111.01195312 211.83273437 111 211 C110.34 211 109.68 211 109 211 C108.01 206.545 108.01 206.545 107 202 C106.34 202 105.68 202 105 202 C104.505 199.525 104.505 199.525 104 197 C103.34 197 102.68 197 102 197 C101.60167969 196.16855469 101.60167969 196.16855469 101.1953125 195.3203125 C100.84210938 194.59585938 100.48890625 193.87140625 100.125 193.125 C99.77695313 192.40570313 99.42890625 191.68640625 99.0703125 190.9453125 C98.03442457 188.84864981 98.03442457 188.84864981 96 187 C95.41405811 185.62216635 94.88022399 184.22193329 94.375 182.8125 C92.26359888 177.3002925 89.52823453 172.22672297 86.64208984 167.09106445 C84 162.31094304 84 162.31094304 84 159 C83.34 159 82.68 159 82 159 C81.67 157.02 81.34 155.04 81 153 C80.01 152.67 79.02 152.34 78 152 C78 151.01 78 150.02 78 149 C77.34 149 76.68 149 76 149 C75.01 144.545 75.01 144.545 74 140 C73.34 140 72.68 140 72 140 C71.15973604 138.23244474 70.32801278 136.46082737 69.5 134.6875 C69.0359375 133.70136719 68.571875 132.71523437 68.09375 131.69921875 C67 129 67 129 67 126 C66.34 126 65.68 126 65 126 C63.27735506 122.70450534 61.70554068 119.66881155 61 116 C60.34 116 59.68 116 59 116 C58.75765625 115.43152344 58.5153125 114.86304688 58.265625 114.27734375 C56.59816746 110.43577811 54.90537271 106.71985376 52.75 103.125 C51 100 51 100 51 97 C50.34 97 49.68 97 49 97 C47.74335022 94.09399739 47 92.20395416 47 89 C46.34 89 45.68 89 45 89 C44.67 87.35 44.34 85.7 44 84 C43.34 84 42.68 84 42 84 C40.74335022 81.09399739 40 79.20395416 40 76 C39.34 76 38.68 76 38 76 C37.67 74.02 37.34 72.04 37 70 C36.34 70 35.68 70 35 70 C34.67 68.35 34.34 66.7 34 65 C33.34 65 32.68 65 32 65 C30.74335022 62.09399739 30 60.20395416 30 57 C29.34 57 28.68 57 28 57 C27.505 54.525 27.505 54.525 27 52 C26.34 52 25.68 52 25 52 C24.67 50.02 24.34 48.04 24 46 C23.34 46 22.68 46 22 46 C20.74335022 43.09399739 20 41.20395416 20 38 C19.34 38 18.68 38 18 38 C17.505 35.525 17.505 35.525 17 33 C16.34 33 15.68 33 15 33 C14.67 31.35 14.34 29.7 14 28 C13.34 28 12.68 28 12 28 C11.34 25.03 10.68 22.06 10 19 C9.34 19 8.68 19 8 19 C7.67 17.35 7.34 15.7 7 14 C6.34 14 5.68 14 5 14 C3.74335022 11.09399739 3 9.20395416 3 6 C2.34 6 1.68 6 1 6 C0.67 4.02 0.34 2.04 0 0 Z " fill="#13181B" transform="translate(27,91)"/>
<path d="M0 0 C1.59374551 -0.00134991 3.18749062 -0.00329315 4.78123474 -0.00579834 C8.09679137 -0.00872658 11.41223932 -0.00452157 14.7277832 0.00488281 C18.98156247 0.0163604 23.23509161 0.00965144 27.48886204 -0.00226212 C30.76844692 -0.00947175 34.04797189 -0.0071984 37.32755852 -0.00200653 C38.89728767 -0.00067187 40.46702225 -0.00231133 42.03674507 -0.00696564 C44.21938791 -0.0120253 46.40161668 -0.00433283 48.58422852 0.00683594 C49.8256813 0.00842712 51.06713409 0.01001831 52.34620667 0.01165771 C55.24609375 0.265625 55.24609375 0.265625 57.24609375 2.265625 C57.1138427 7.15891367 54.62028314 8.99733029 51.24609375 12.265625 C46.29865975 17.5243214 41.50703375 22.87695001 36.99609375 28.515625 C32.69889363 33.85086991 28.05474361 38.79536551 23.34887695 43.76611328 C19.32140754 48.04457868 15.54946318 52.43439965 11.9921875 57.1171875 C9.90690132 59.68297586 7.58405605 61.9276627 5.24609375 64.265625 C3.18428383 66.56434133 1.1825128 68.91218068 -0.81640625 71.265625 C-1.33267578 71.86890625 -1.84894531 72.4721875 -2.38085938 73.09375 C-4.65379854 75.7575768 -6.87193002 78.41997956 -9 81.203125 C-9.57878906 81.88375 -10.15757812 82.564375 -10.75390625 83.265625 C-11.41390625 83.265625 -12.07390625 83.265625 -12.75390625 83.265625 C-12.99496094 83.81347656 -13.23601562 84.36132812 -13.484375 84.92578125 C-15.05117821 87.81352008 -16.97552226 90.16946557 -19.06640625 92.703125 C-19.82566406 93.62996094 -20.58492187 94.55679688 -21.3671875 95.51171875 C-23.72190254 98.22869764 -26.19853595 100.73807367 -28.75390625 103.265625 C-32.1284432 106.89515108 -35.44120141 110.57965765 -38.75390625 114.265625 C-39.75744141 115.37744141 -39.75744141 115.37744141 -40.78125 116.51171875 C-43.51239413 119.57753262 -46.08769024 122.64909786 -48.44140625 126.015625 C-50.39443373 128.76042038 -52.20879127 131.07156036 -54.75390625 133.265625 C-55.41390625 133.265625 -56.07390625 133.265625 -56.75390625 133.265625 C-57.00785156 133.82765625 -57.26179688 134.3896875 -57.5234375 134.96875 C-58.9154334 137.56714236 -60.62216867 139.69821891 -62.44140625 142.015625 C-64.76306587 145.29980601 -66.31347433 147.4931275 -65.94140625 151.578125 C-64.69559033 155.44671128 -63.31300823 157.16942754 -60.75390625 160.265625 C-59.19257092 162.44243552 -57.65057574 164.62424036 -56.12890625 166.828125 C-55.53722656 167.67407227 -55.53722656 167.67407227 -54.93359375 168.53710938 C-52.97942455 171.35943144 -51.17665792 174.13710118 -49.75390625 177.265625 C-49.09390625 177.265625 -48.43390625 177.265625 -47.75390625 177.265625 C-46.59765625 178.7421875 -46.59765625 178.7421875 -45.25390625 180.890625 C-37.16549303 193.4266815 -28.14618219 205.40943184 -18.94140625 217.140625 C-11.75390625 226.35065407 -11.75390625 226.35065407 -11.75390625 229.265625 C-11.09390625 229.265625 -10.43390625 229.265625 -9.75390625 229.265625 C-8.52050781 230.59155273 -8.52050781 230.59155273 -7.14453125 232.44921875 C-6.63954102 233.12581543 -6.13455078 233.80241211 -5.61425781 234.49951172 C-5.0828418 235.2267041 -4.55142578 235.95389648 -4.00390625 236.703125 C-3.19518066 237.79778076 -3.19518066 237.79778076 -2.37011719 238.91455078 C8.24609375 253.3570879 8.24609375 253.3570879 8.24609375 256.265625 C8.80296875 256.45125 9.35984375 256.636875 9.93359375 256.828125 C13.27744182 258.90673326 15.29417203 261.87376102 17.24609375 265.265625 C17.24609375 265.925625 17.24609375 266.585625 17.24609375 267.265625 C17.90609375 267.265625 18.56609375 267.265625 19.24609375 267.265625 C20.90234375 269.53125 20.90234375 269.53125 22.74609375 272.515625 C23.35453125 273.49015625 23.96296875 274.4646875 24.58984375 275.46875 C25.91323223 277.70352866 27.1304579 279.92278972 28.24609375 282.265625 C28.90609375 282.265625 29.56609375 282.265625 30.24609375 282.265625 C31.56375238 284.00813617 32.79679801 285.81462961 33.99609375 287.640625 C36.81229953 291.87272981 39.74442991 295.95232106 42.91796875 299.92578125 C43.54993164 300.71742676 44.18189453 301.50907227 44.83300781 302.32470703 C46.09136141 303.88913795 47.35873278 305.44636538 48.63574219 306.99560547 C54.30876211 314.07198439 54.30876211 314.07198439 54.24609375 319.265625 C51.76566754 321.74605121 50.33837201 321.50443285 46.95367432 321.52557373 C46.21751892 321.51995422 45.48136353 321.51433472 44.72290039 321.50854492 C43.94714157 321.51044327 43.17138275 321.51234161 42.37211609 321.51429749 C39.80005889 321.51801117 37.22828224 321.50729174 34.65625 321.49609375 C32.87267592 321.49490204 31.0891012 321.49444877 29.30552673 321.4947052 C25.56375206 321.49313925 21.82207291 321.48484186 18.08032227 321.47143555 C13.28051456 321.45445785 8.48081204 321.45062082 3.68097782 321.45138073 C-0.00355537 321.45110894 -3.6880655 321.44562611 -7.37259102 321.43837929 C-9.14244983 321.43519357 -10.91231125 321.43322544 -12.68217278 321.43248558 C-15.15526667 321.4303203 -17.6282485 321.42157158 -20.10131836 321.41088867 C-21.20251511 321.41156845 -21.20251511 321.41156845 -22.32595825 321.41226196 C-25.41006342 321.39275674 -27.80410177 321.24889316 -30.75390625 320.265625 C-30.75390625 319.605625 -30.75390625 318.945625 -30.75390625 318.265625 C-31.65496094 318.11613403 -31.65496094 318.11613403 -32.57421875 317.96362305 C-35.17915964 317.12944675 -35.96223938 316.2342502 -37.62890625 314.09765625 C-38.139375 313.45119141 -38.64984375 312.80472656 -39.17578125 312.13867188 C-39.6965625 311.45869141 -40.21734375 310.77871094 -40.75390625 310.078125 C-41.53507812 309.0871582 -41.53507812 309.0871582 -42.33203125 308.07617188 C-50.75390625 297.30425347 -50.75390625 297.30425347 -50.75390625 294.265625 C-51.41390625 294.265625 -52.07390625 294.265625 -52.75390625 294.265625 C-53.98046875 292.68359375 -53.98046875 292.68359375 -55.37890625 290.453125 C-59.584456 283.92833825 -64.03759629 277.54034014 -68.99609375 271.5625 C-70.75390625 269.265625 -70.75390625 269.265625 -70.75390625 267.265625 C-71.41390625 267.265625 -72.07390625 267.265625 -72.75390625 267.265625 C-73.70232532 265.93081298 -74.63631472 264.58444151 -75.515625 263.203125 C-79.02761113 257.70802999 -82.85568964 252.4256577 -86.8046875 247.23828125 C-87.34158203 246.53171387 -87.87847656 245.82514648 -88.43164062 245.09716797 C-89.50462709 243.68991481 -90.58260324 242.28644934 -91.66601562 240.88720703 C-94.27495533 237.46612965 -96.42808022 234.41987988 -97.75390625 230.265625 C-98.41390625 230.265625 -99.07390625 230.265625 -99.75390625 230.265625 C-100.98046875 228.68359375 -100.98046875 228.68359375 -102.37890625 226.453125 C-106.584456 219.92833825 -111.03759629 213.54034014 -115.99609375 207.5625 C-117.75390625 205.265625 -117.75390625 205.265625 -117.75390625 203.265625 C-118.41390625 203.265625 -119.07390625 203.265625 -119.75390625 203.265625 C-123.75390625 197.85386029 -123.75390625 197.85386029 -123.75390625 195.265625 C-124.41390625 195.265625 -125.07390625 195.265625 -125.75390625 195.265625 C-126.9375 193.91015625 -126.9375 193.91015625 -128.19140625 192.078125 C-128.62839844 191.44003906 -129.06539063 190.80195313 -129.515625 190.14453125 C-131.65482717 186.89861249 -133.52096147 183.96445933 -134.75390625 180.265625 C-135.41390625 180.265625 -136.07390625 180.265625 -136.75390625 180.265625 C-138.04296875 178.5859375 -138.04296875 178.5859375 -139.37890625 176.390625 C-140.04792969 175.31167969 -140.04792969 175.31167969 -140.73046875 174.2109375 C-141.75390625 172.265625 -141.75390625 172.265625 -141.75390625 170.265625 C-142.41390625 170.265625 -143.07390625 170.265625 -143.75390625 170.265625 C-144.08390625 168.945625 -144.41390625 167.625625 -144.75390625 166.265625 C-145.41390625 166.265625 -146.07390625 166.265625 -146.75390625 166.265625 C-149.01458949 160.47262419 -149.53460351 155.90047825 -147.75390625 149.890625 C-145.85287247 145.87334607 -142.88998554 142.84549418 -139.890625 139.61328125 C-134.20968748 133.37699312 -134.20968748 133.37699312 -129.75390625 126.265625 C-129.09390625 126.265625 -128.43390625 126.265625 -127.75390625 126.265625 C-127.09390625 124.615625 -126.43390625 122.965625 -125.75390625 121.265625 C-125.09390625 121.265625 -124.43390625 121.265625 -123.75390625 121.265625 C-123.37298828 120.42064453 -123.37298828 120.42064453 -122.984375 119.55859375 C-121.58960809 116.95945668 -119.93617414 114.85931529 -118.06640625 112.578125 C-115.49486789 109.41209121 -112.93763243 106.24142453 -110.44140625 103.015625 C-108.37791401 100.35184411 -106.30714634 97.69423927 -104.22265625 95.046875 C-103.76987305 94.47179199 -103.31708984 93.89670898 -102.85058594 93.30419922 C-101.91176565 92.11261962 -100.97231311 90.92153788 -100.03222656 89.73095703 C-97.62062412 86.66956632 -95.23571032 83.59223065 -92.89453125 80.4765625 C-92.43989502 79.87424805 -91.98525879 79.27193359 -91.5168457 78.65136719 C-90.64801767 77.4971974 -89.7843675 76.33910752 -88.92651367 75.17675781 C-87.91553631 73.83662015 -86.84025149 72.54542898 -85.75390625 71.265625 C-85.09390625 71.265625 -84.43390625 71.265625 -83.75390625 71.265625 C-83.47546875 70.275625 -83.47546875 70.275625 -83.19140625 69.265625 C-81.4500815 65.63155595 -79.12106064 63.08494143 -76.41015625 60.1328125 C-74.5858872 58.16219309 -74.5858872 58.16219309 -72.75390625 55.265625 C-72.09390625 55.265625 -71.43390625 55.265625 -70.75390625 55.265625 C-70.51671875 54.73453125 -70.27953125 54.2034375 -70.03515625 53.65625 C-68.38012241 50.56819905 -66.34842497 47.8127778 -64.25390625 45.015625 C-63.64869141 44.18417969 -63.64869141 44.18417969 -63.03125 43.3359375 C-61.98940454 41.93993335 -60.87645213 40.59760108 -59.75390625 39.265625 C-59.09390625 39.265625 -58.43390625 39.265625 -57.75390625 39.265625 C-57.51027344 38.53859375 -57.26664062 37.8115625 -57.015625 37.0625 C-55.59994604 33.92433859 -53.93177911 32.00720536 -51.56640625 29.515625 C-46.65363171 24.20982849 -42.27061342 18.62846648 -37.94140625 12.84375 C-32.5635722 5.75057233 -29.05361953 2.19765181 -20.14163208 0.67370605 C-13.44934101 -0.13243864 -6.73015156 -0.02022512 0 0 Z " fill="#1F8292" transform="translate(410.75390625,90.734375)"/>
<path d="M0 0 C0.33 0 0.66 0 1 0 C1 15.18 1 30.36 1 46 C-14.51 46 -30.02 46 -46 46 C-43.15584037 44.10389358 -40.6727987 43.03569739 -37.5 41.8125 C-21.78652989 35.32215365 -10.23707391 25.16693938 -3.453125 9.40625 C-2.24618485 6.28719119 -1.09065042 3.16137842 0 0 Z " fill="#000000" transform="translate(499,454)"/>
<path d="M0 0 C1.28669054 2.57338108 2.46431969 5.04545646 3.55859375 7.6875 C10.03774844 22.77512552 19.45565942 35.38340841 35.18359375 41.75390625 C39.09100882 43.26526085 43.0321666 44.65605643 47 46 C47 46.33 47 46.66 47 47 C31.49 47 15.98 47 0 47 C0 31.49 0 15.98 0 0 Z " fill="#000000" transform="translate(0,453)"/>
<path d="M0 0 C15.51 0 31.02 0 47 0 C47 15.51 47 31.02 47 47 C45 43 45 43 43.7734375 39.8984375 C40.56993603 31.82704553 37.0267932 25.39578054 31 19 C30.35675781 18.30390625 29.71351563 17.6078125 29.05078125 16.890625 C21.20648242 9.18079986 10.43675758 4.21380716 0 1 C0 0.67 0 0.34 0 0 Z " fill="#000000" transform="translate(453,0)"/>
<path d="M0 0 C15.18 0 30.36 0 46 0 C43.53340872 1.23329564 41.04672157 2.42833119 38.53125 3.55859375 C20.25092611 11.95649407 9.13205152 24.19293126 2.06640625 43.0703125 C1.53853516 44.52050781 1.53853516 44.52050781 1 46 C0.67 46 0.34 46 0 46 C0 30.82 0 15.64 0 0 Z " fill="#000000" transform="translate(0,0)"/>
<path d="M0 0 C0.33 0 0.66 0 1 0 C1 1.98 1 3.96 1 6 C0.34 6 -0.32 6 -1 6 C-1 6.66 -1 7.32 -1 8 C-4.75218072 9.19290351 -8.32644534 9.12700711 -12.24365234 9.12939453 C-12.96611649 9.13114685 -13.68858063 9.13289917 -14.43293762 9.13470459 C-16.81729548 9.13909966 -19.20157891 9.13619274 -21.5859375 9.1328125 C-23.24736546 9.13348636 -24.90879332 9.13445707 -26.57022095 9.13571167 C-30.05203185 9.13718559 -33.53381708 9.13504443 -37.015625 9.13037109 C-41.46980529 9.12468287 -45.9239252 9.12794899 -50.37810326 9.13394356 C-53.8096868 9.13756499 -57.24125614 9.13640316 -60.67284012 9.13381577 C-62.31462232 9.13315041 -63.95640582 9.13396119 -65.59818649 9.13629532 C-67.89801168 9.13884683 -70.19774054 9.13494576 -72.49755859 9.12939453 C-74.45802628 9.12820114 -74.45802628 9.12820114 -76.45809937 9.12698364 C-79.73353013 9.00955343 -82.78680004 8.62447787 -86 8 C-86.33 7.01 -86.66 6.02 -87 5 C-58.29 5 -29.58 5 0 5 C0 3.35 0 1.7 0 0 Z " fill="#D5ECEB" transform="translate(466,406)"/>
<path d="M0 0 C22.11 0 44.22 0 67 0 C67.495 0.99 67.495 0.99 68 2 C53.48 2.33 38.96 2.66 24 3 C24 3.33 24 3.66 24 4 C18.06 4 12.12 4 6 4 C6 7.3 6 10.6 6 14 C3.4345406 11.4345406 3.45953913 9.52313332 3 6 C2.34 6 1.68 6 1 6 C0.67 4.02 0.34 2.04 0 0 Z " fill="#202223" transform="translate(27,91)"/>
<path d="M0 0 C6.31906812 2.10635604 10.59706387 10.41918475 14 16 C14 16.66 14 17.32 14 18 C14.66 18 15.32 18 16 18 C17.23339844 19.32592773 17.23339844 19.32592773 18.609375 21.18359375 C19.11436523 21.86019043 19.61935547 22.53678711 20.13964844 23.23388672 C20.67106445 23.9610791 21.20248047 24.68827148 21.75 25.4375 C22.28915039 26.16727051 22.82830078 26.89704102 23.38378906 27.64892578 C34 42.0914629 34 42.0914629 34 45 C34.66 45 35.32 45 36 45 C36 45.99 36 46.98 36 48 C35.01 48 34.02 48 33 48 C33 46.68 33 45.36 33 44 C32.34 44 31.68 44 31 44 C30.731875 43.360625 30.46375 42.72125 30.1875 42.0625 C29.11332248 39.66868314 29.11332248 39.66868314 26 39 C24.859375 37.28515625 24.859375 37.28515625 23.75 35.0625 C18.69821609 25.40214163 18.69821609 25.40214163 11 18 C9.8125 14.875 9.8125 14.875 9 12 C8.34 12 7.68 12 7 12 C6.67 10.68 6.34 9.36 6 8 C5.34 8 4.68 8 4 8 C3.34 6.02 2.68 4.04 2 2 C1.34 2 0.68 2 0 2 C0 1.34 0 0.68 0 0 Z " fill="#2D7781" transform="translate(385,302)"/>
<path d="M0 0 C7.3553719 2.20661157 7.3553719 2.20661157 10.4375 6 C12 9 12 9 13 12 C13.66 12 14.32 12 15 12 C16.52025676 14.01307084 17.92882803 16.02090378 19.3125 18.125 C20.07642233 19.2754384 20.84335153 20.42388585 21.61328125 21.5703125 C21.99564941 22.14168945 22.37801758 22.71306641 22.77197266 23.30175781 C24.03167938 25.0438095 25.40921332 26.59095616 26.85546875 28.1796875 C29 31 29 31 28.8125 33.375 C28.544375 33.91125 28.27625 34.4475 28 35 C27.46890625 34.25234375 26.9378125 33.5046875 26.390625 32.734375 C25.68421875 31.74953125 24.9778125 30.7646875 24.25 29.75 C23.55390625 28.77546875 22.8578125 27.8009375 22.140625 26.796875 C20.23250741 24.30378705 18.23998479 22.18767092 16 20 C14.35184361 17.55828683 13.14011415 15.63051367 12.5 12.75 C12.335 12.1725 12.17 11.595 12 11 C11.01 10.67 10.02 10.34 9 10 C8.34 8.989375 7.68 7.97875 7 6.9375 C6.34 5.968125 5.68 4.99875 5 4 C4.01 4 3.02 4 2 4 C1.67 4.66 1.34 5.32 1 6 C-0.0625 4.125 -0.0625 4.125 -1 2 C-0.67 1.34 -0.34 0.68 0 0 Z " fill="#257884" transform="translate(426,361)"/>
<path d="M0 0 C0.495 0.99 0.495 0.99 1 2 C-7.62956486 3.03274711 -16.23536243 3.32438236 -24.91552734 3.55761719 C-27.39054539 3.6254259 -29.86513388 3.70307555 -32.33984375 3.78125 C-33.92185828 3.82611438 -35.50388918 3.87040594 -37.0859375 3.9140625 C-37.82137787 3.93796051 -38.55681824 3.96185852 -39.31454468 3.98648071 C-42.70378227 4.06955877 -45.76323651 4.08662024 -49 3 C-49 2.34 -49 1.68 -49 1 C-32.83 0.67 -16.66 0.34 0 0 Z " fill="#F9F9F5" transform="translate(157,413)"/>
<path d="M0 0 C4.7439817 4.40836541 8.48259076 9.41853224 12.3125 14.625 C13.28026367 15.91277344 13.28026367 15.91277344 14.26757812 17.2265625 C14.87666016 18.0515625 15.48574219 18.8765625 16.11328125 19.7265625 C16.66798096 20.47502441 17.22268066 21.22348633 17.79418945 21.99462891 C19 24 19 24 19 27 C20.32 27.66 21.64 28.32 23 29 C23 29.66 23 30.32 23 31 C20.00675737 29.9024777 19.15389099 29.32317108 17.75 26.375 C17.5025 25.59125 17.255 24.8075 17 24 C16.34 24 15.68 24 15 24 C13.7734375 22.41796875 13.7734375 22.41796875 12.375 20.1875 C9.33863387 15.4492694 6.0342054 10.96515113 2.63671875 6.48046875 C1.1405096 4.21294415 0.42633219 2.65067406 0 0 Z " fill="#24717A" transform="translate(343,361)"/>
<path d="M0 0 C0.33 0.99 0.66 1.98 1 3 C0.07421875 4.82421875 0.07421875 4.82421875 -1.3125 6.6875 C-1.76238281 7.31011719 -2.21226562 7.93273437 -2.67578125 8.57421875 C-3.11277344 9.04472656 -3.54976563 9.51523438 -4 10 C-4.66 10 -5.32 10 -6 10 C-6.33 11.32 -6.66 12.64 -7 14 C-7.66 14 -8.32 14 -9 14 C-9.04125 14.721875 -9.0825 15.44375 -9.125 16.1875 C-10.38352165 20.23274817 -12.63589117 21.49481257 -16 24 C-16.33 23.01 -16.66 22.02 -17 21 C-15.41015625 18.65234375 -15.41015625 18.65234375 -13.0625 15.9375 C-12.24007813 14.97070312 -11.41765625 14.00390625 -10.5703125 13.0078125 C-9.29800781 11.51894531 -9.29800781 11.51894531 -8 10 C-6.47133797 8.11047349 -4.94983718 6.21511775 -3.4375 4.3125 C-2.77621094 3.48363281 -2.11492187 2.65476563 -1.43359375 1.80078125 C-0.96050781 1.20652344 -0.48742187 0.61226562 0 0 Z " fill="#387C86" transform="translate(320,169)"/>
<path d="M0 0 C0.66 0.33 1.32 0.66 2 1 C1.75 2.875 1.75 2.875 1 5 C-1.0625 6.25 -1.0625 6.25 -3 7 C-3 7.99 -3 8.98 -3 10 C-3.66 10.66 -4.32 11.32 -5 12 C-5.66 11.67 -6.32 11.34 -7 11 C-7.33 12.32 -7.66 13.64 -8 15 C-8.99 15 -9.98 15 -11 15 C-11.99 17.475 -11.99 17.475 -13 20 C-13.99 20 -14.98 20 -16 20 C-15.505 18.515 -15.505 18.515 -15 17 C-14.34 17 -13.68 17 -13 17 C-12.64421875 16.20142578 -12.64421875 16.20142578 -12.28125 15.38671875 C-10.63204703 12.31457541 -8.59546066 9.58747905 -6.5 6.8125 C-6.09652344 6.26658203 -5.69304687 5.72066406 -5.27734375 5.15820312 C-2.24790737 1.12395368 -2.24790737 1.12395368 0 0 Z " fill="#2F7A87" transform="translate(353,129)"/>
<path d="M0 0 C0.66 0.33 1.32 0.66 2 1 C1.26652344 1.9178125 0.53304688 2.835625 -0.22265625 3.78125 C-1.17044094 5.0199389 -2.11699098 6.25957318 -3.0625 7.5 C-3.54783203 8.10070312 -4.03316406 8.70140625 -4.53320312 9.3203125 C-7.08322417 12.72034056 -8.37982253 14.93289694 -7.875 19.25 C-7.09423307 22.59614397 -6.20609777 25.78373929 -5 29 C-8.94477066 26.37015289 -9.02667201 24.56715441 -10 20 C-10.29044335 15.71596053 -10.34878447 12.66997573 -8 9 C-7.34 9 -6.68 9 -6 9 C-5.7525 8.443125 -5.505 7.88625 -5.25 7.3125 C-3.78393985 4.60028873 -1.97010529 2.36412635 0 0 Z " fill="#25707B" transform="translate(353,223)"/>
<path d="M0 0 C0.625 2.8125 0.625 2.8125 1 6 C0.01 7.485 0.01 7.485 -1 9 C-1 9.99 -1 10.98 -1 12 C-2.98 11.34 -4.96 10.68 -7 10 C-6.34 8.68 -5.68 7.36 -5 6 C-5.99 6 -6.98 6 -8 6 C-7.0479279 4.99403703 -6.08812654 3.99538437 -5.125 3 C-4.59132813 2.443125 -4.05765625 1.88625 -3.5078125 1.3125 C-2 0 -2 0 0 0 Z " fill="#F3EFE8" transform="translate(438,132)"/>
<path d="M0 0 C0.66 0 1.32 0 2 0 C2.6875 2.3125 2.6875 2.3125 3 5 C1.6875 6.5 1.6875 6.5 0 8 C-1.19027984 10.59915538 -1.19027984 10.59915538 -2 13 C-2.99 13 -3.98 13 -5 13 C-5.33 14.98 -5.66 16.96 -6 19 C-6.66 19 -7.32 19 -8 19 C-6.44071133 12.13912984 -3.24242526 6.20955026 0 0 Z M3 0 C3.66 0 4.32 0 5 0 C4.67 0.99 4.34 1.98 4 3 C3.67 2.01 3.34 1.02 3 0 Z " fill="#3D4040" transform="translate(237,109)"/>
<path d="M0 0 C0.66 0 1.32 0 2 0 C3.35278115 1.98689731 4.68568305 3.98745218 6 6 C6.66 6.33 7.32 6.66 8 7 C8.61875 8.423125 8.61875 8.423125 9.25 9.875 C11.33331258 13.59520104 13.11057661 14.44423064 17 16 C15.3125 16.6875 15.3125 16.6875 13 17 C8.96795425 15.01050374 6.47618563 12.55492174 3.6875 9.0625 C2.99011719 8.20785156 2.29273438 7.35320312 1.57421875 6.47265625 C0 4 0 4 0 0 Z " fill="#23717B" transform="translate(367,393)"/>
<path d="M0 0 C4.27550021 2.17448121 6.20564373 4.39040853 8.625 8.5 C10.84826231 12.32853421 10.84826231 12.32853421 13.7109375 15.65625 C15 17 15 17 15 20 C14.34 20 13.68 20 13 20 C9.14243682 15.73344216 5.8504165 10.98822887 3 6 C2.443125 5.278125 1.88625 4.55625 1.3125 3.8125 C0 2 0 2 0 0 Z " fill="#29767E" transform="translate(368,279)"/>
<path d="M0 0 C5.145995 4.69193661 9.77695498 10.33086494 12 17 C12.66 17 13.32 17 14 17 C14.66 18.98 15.32 20.96 16 23 C12.48418443 21.82806148 12.1551098 21.10746482 10.25 18.0625 C7.4319314 13.63714102 4.42253058 9.39435988 1.3203125 5.1640625 C0 3 0 3 0 0 Z " fill="#29747D" transform="translate(298,299)"/>
<path d="M0 0 C0.66 0 1.32 0 2 0 C2 0.66 2 1.32 2 2 C2.92425781 2.38671875 2.92425781 2.38671875 3.8671875 2.78125 C7.48896827 4.85083901 8.58671333 8.19788365 10 12 C10.83720442 15.31119052 11.47455951 18.62611893 12 22 C9.4345406 19.4345406 9.45953913 17.52313332 9 14 C8.34 14 7.68 14 7 14 C6.67 12.35 6.34 10.7 6 9 C5.34 9 4.68 9 4 9 C3.67 7.35 3.34 5.7 3 4 C2.34 4 1.68 4 1 4 C0.67 2.68 0.34 1.36 0 0 Z " fill="#2B2D2F" transform="translate(38,115)"/>
<path d="M0 0 C-1.28148025 2.56296049 -2.15611519 2.59318218 -4.8125 3.5 C-5.53308594 3.75910156 -6.25367188 4.01820312 -6.99609375 4.28515625 C-7.65738281 4.52105469 -8.31867188 4.75695312 -9 5 C-12.61993586 6.42892205 -13.36917003 7.5344863 -15 11 C-16.29470975 12.37086915 -17.62150897 13.71340837 -19 15 C-19 13.68 -19 12.36 -19 11 C-18.34 11 -17.68 11 -17 11 C-17 10.34 -17 9.68 -17 9 C-16.34 9 -15.68 9 -15 9 C-14.7215625 7.88625 -14.7215625 7.88625 -14.4375 6.75 C-11.4297521 0.9960475 -6.14448576 -0.59946203 0 0 Z " fill="#D8ECED" transform="translate(391,90)"/>
<path d="M0 0 C0.99 0 1.98 0 3 0 C1.32598022 3.95677402 -1.13149285 6.84464213 -4 10 C-4.66 10 -5.32 10 -6 10 C-6 10.99 -6 11.98 -6 13 C-7.32 13 -8.64 13 -10 13 C-9.67 12.01 -9.34 11.02 -9 10 C-8.34 10 -7.68 10 -7 10 C-6.773125 9.46375 -6.54625 8.9275 -6.3125 8.375 C-4.53064818 5.15069671 -2.51917702 2.70350705 0 0 Z " fill="#D3E8E7" transform="translate(458,106)"/>
<path d="M0 0 C0.66 0 1.32 0 2 0 C2.33 0.66 2.66 1.32 3 2 C3.99 2.33 4.98 2.66 6 3 C6 4.32 6 5.64 6 7 C6.66 7 7.32 7 8 7 C9.70884005 8.62339805 11.37446717 10.29319053 13 12 C13.66 12.66 14.32 13.32 15 14 C15 14.99 15 15.98 15 17 C12.57896172 16.61398106 11.28664382 16.28874728 9.53613281 14.52539062 C9.09624023 13.90857422 8.65634766 13.29175781 8.203125 12.65625 C7.47802734 11.65271484 7.47802734 11.65271484 6.73828125 10.62890625 C6.24714844 9.92636719 5.75601562 9.22382813 5.25 8.5 C4.74339844 7.79746094 4.23679687 7.09492188 3.71484375 6.37109375 C0 1.17431772 0 1.17431772 0 0 Z " fill="#DFEEED" transform="translate(447,382)"/>
<path d="M0 0 C1.125 3.75 1.125 3.75 0 6 C-0.66 6 -1.32 6 -2 6 C-2.33 6.99 -2.66 7.98 -3 9 C-3.66 9 -4.32 9 -5 9 C-5 9.66 -5 10.32 -5 11 C-5.66 11 -6.32 11 -7 11 C-6.67 14.3 -6.34 17.6 -6 21 C-8 20 -8 20 -9.125 16.625 C-9.78049273 10.98161726 -6.20878806 7.43517233 -2.8828125 3.22265625 C-1 1 -1 1 0 0 Z " fill="#BAD5D9" transform="translate(353,226)"/>
<path d="M0 0 C6.95272603 3.04838744 11.31315547 10.0048419 14.1875 16.8125 C14.455625 17.534375 14.72375 18.25625 15 19 C11.17242836 15.33104845 7.88897534 11.47120452 4.6875 7.25 C4.23310547 6.66089844 3.77871094 6.07179688 3.31054688 5.46484375 C0 1.13375235 0 1.13375235 0 0 Z " fill="#2D767E" transform="translate(316,326)"/>
<path d="M0 0 C3 2 3 2 4 5 C4.825 5.391875 5.65 5.78375 6.5 6.1875 C9 8 9 8 9.55078125 9.96875 C9.78694503 11.97085484 9.90097286 13.98644823 10 16 C9.34 14.68 8.68 13.36 8 12 C7.34 12 6.68 12 6 12 C4.71993203 10.21601386 3.52339649 8.37146094 2.375 6.5 C1.42753906 4.96859375 1.42753906 4.96859375 0.4609375 3.40625 C-0.02117187 2.6121875 -0.50328125 1.818125 -1 1 C-0.67 0.67 -0.34 0.34 0 0 Z " fill="#DFEEEF" transform="translate(422,346)"/>
<path d="M0 0 C3.55780196 0.60990891 6.6828589 1.5783681 10 3 C9.67 5.64 9.34 8.28 9 11 C7.5 9.625 7.5 9.625 6 8 C6 7.34 6 6.68 6 6 C5.34 6 4.68 6 4 6 C2.61061923 4.03852126 1.2739589 2.03833424 0 0 Z " fill="#DEEBE9" transform="translate(357,262)"/>
<path d="M0 0 C2 3 2 3 2 5 C2.66 5 3.32 5 4 5 C4.66 7.97 5.32 10.94 6 14 C6.66 14 7.32 14 8 14 C8.33 15.32 8.66 16.64 9 18 C8.34 18 7.68 18 7 18 C7 17.01 7 16.02 7 15 C5.68 15.33 4.36 15.66 3 16 C2.34 15.01 1.68 14.02 1 13 C1.33 12.34 1.66 11.68 2 11 C2.66 11 3.32 11 4 11 C3.67 9.35 3.34 7.7 3 6 C2.01 6 1.02 6 0 6 C0 4.02 0 2.04 0 0 Z " fill="#C8C9C5" transform="translate(130,288)"/>
<path d="M0 0 C0 3.8148669 -1.06277405 5.72675616 -3 9 C-5.68673501 11.48522988 -7.52547139 12.8418238 -11 14 C-9.42219077 10.28954753 -7.09296752 7.70093616 -4.375 4.75 C-3.55773437 3.85796875 -2.74046875 2.9659375 -1.8984375 2.046875 C-1.27195312 1.37140625 -0.64546875 0.6959375 0 0 Z " fill="#C8DDE0" transform="translate(373,203)"/>
<path d="M0 0 C0.33 0.66 0.66 1.32 1 2 C1.59167969 2.27070313 2.18335938 2.54140625 2.79296875 2.8203125 C5.68562842 4.36647749 7.2513919 6.33535309 9.3125 8.875 C10.38951172 10.17050781 10.38951172 10.17050781 11.48828125 11.4921875 C13 14 13 14 12.73046875 16.3203125 C12.48941406 16.87460937 12.24835938 17.42890625 12 18 C11.46890625 17.25234375 10.9378125 16.5046875 10.390625 15.734375 C9.68421875 14.74953125 8.9778125 13.7646875 8.25 12.75 C7.55390625 11.77546875 6.8578125 10.8009375 6.140625 9.796875 C4.10583348 6.99083506 4.10583348 6.99083506 1.734375 4.828125 C0 3 0 3 0 0 Z " fill="#28747F" transform="translate(442,378)"/>
<path d="M0 0 C1 4 1 4 0 6 C0.66 6 1.32 6 2 6 C2.33 7.32 2.66 8.64 3 10 C0.6875 11.5625 0.6875 11.5625 -2 13 C-2.99 12.67 -3.98 12.34 -5 12 C-4.67 11.01 -4.34 10.02 -4 9 C-3.34 9 -2.68 9 -2 9 C-1.34 6.03 -0.68 3.06 0 0 Z " fill="#D9D9D4" transform="translate(180,372)"/>
<path d="M0 0 C0.33 0.99 0.66 1.98 1 3 C-0.24839573 4.41808059 -1.49879221 5.83439995 -2.75 7.25 C-3.44609375 8.03890625 -4.1421875 8.8278125 -4.859375 9.640625 C-6.84586916 11.83011856 -8.89101308 13.92901285 -11 16 C-11.66 15.67 -12.32 15.34 -13 15 C-11.71937515 13.2925002 -10.38232443 11.62626404 -9 10 C-8.34 10 -7.68 10 -7 10 C-6.34 8.35 -5.68 6.7 -5 5 C-4.34 5 -3.68 5 -3 5 C-2.87625 4.360625 -2.7525 3.72125 -2.625 3.0625 C-2.41875 2.381875 -2.2125 1.70125 -2 1 C-1.34 0.67 -0.68 0.34 0 0 Z " fill="#29717E" transform="translate(368,206)"/>
<path d="M0 0 C0 4.10560643 -1.6620274 5.42771384 -4.25 8.5625 C-5.03890625 9.53316406 -5.8278125 10.50382812 -6.640625 11.50390625 C-8.75135735 13.73694925 -10.17747448 14.90594768 -13 16 C-12.75 13.625 -12.75 13.625 -12 11 C-10.66666667 10.33333333 -9.33333333 9.66666667 -8 9 C-6.63618235 7.27949157 -5.43736488 5.4997909 -4.24609375 3.65625 C-3 2 -3 2 0 0 Z " fill="#24717C" transform="translate(463,98)"/>
<path d="M0 0 C1.04850217 3.14550651 0.9598919 4.64680405 0.5625 7.875 C0.15120268 11.27991702 -0.05533739 14.5690821 0 18 C-3.02021815 14.97978185 -2.97373029 12.73555198 -3.125 8.5 C-2.94488189 3.45669291 -2.94488189 3.45669291 -2 1 C-1.34 0.67 -0.68 0.34 0 0 Z " fill="#397681" transform="translate(265,239)"/>
<path d="M0 0 C0.33 0.66 0.66 1.32 1 2 C0.67 2.66 0.34 3.32 0 4 C0.66 4 1.32 4 2 4 C2 4.66 2 5.32 2 6 C0.68 5.67 -0.64 5.34 -2 5 C-2.66 7.97 -3.32 10.94 -4 14 C-4.66 14 -5.32 14 -6 14 C-6.33 14.99 -6.66 15.98 -7 17 C-7.33 16.34 -7.66 15.68 -8 15 C-6.94768851 12.5749805 -5.84614846 10.27492731 -4.625 7.9375 C-4.295 7.28716797 -3.965 6.63683594 -3.625 5.96679688 C-1.16836021 1.16836021 -1.16836021 1.16836021 0 0 Z " fill="#4F5151" transform="translate(187,211)"/>
<path d="M0 0 C2 2 2 2 2.01171875 4.3125 C1.90472656 5.199375 1.79773438 6.08625 1.6875 7 C1.58824219 7.886875 1.48898438 8.77375 1.38671875 9.6875 C1 12 1 12 0 14 C-0.66 14 -1.32 14 -2 14 C-2.33 14.99 -2.66 15.98 -3 17 C-3.33 16.34 -3.66 15.68 -4 15 C-3.26740357 13.33500811 -2.5311519 11.67144818 -1.76953125 10.01953125 C-0.51617568 6.73026814 -0.3065511 3.49468254 0 0 Z " fill="#0E1013" transform="translate(140,304)"/>
<path d="M0 0 C4.28760234 3.4005122 5.96367838 7.74090992 7 13 C6.67 13.99 6.34 14.98 6 16 C5.67 14.35 5.34 12.7 5 11 C4.34 11 3.68 11 3 11 C1.74335022 8.09399739 1 6.20395416 1 3 C0.34 3 -0.32 3 -1 3 C-0.67 2.01 -0.34 1.02 0 0 Z " fill="#D9D8D6" transform="translate(167,219)"/>
<path d="M0 0 C0.33 0.66 0.66 1.32 1 2 C0.34 2 -0.32 2 -1 2 C-1.04125 2.721875 -1.0825 3.44375 -1.125 4.1875 C-2.38352165 8.23274817 -4.63589117 9.49481257 -8 12 C-8.33 11.01 -8.66 10.02 -9 9 C-7.63671875 6.9921875 -7.63671875 6.9921875 -5.6875 4.875 C-5.05199219 4.17117187 -4.41648437 3.46734375 -3.76171875 2.7421875 C-2 1 -2 1 0 0 Z " fill="#29757E" transform="translate(312,181)"/>
<path d="M0 0 C1 2 1 2 0.6875 4.0625 C0 6 0 6 -2 7 C-2.72159424 8.64363134 -3.39351421 10.31050386 -4 12 C-5.65 12 -7.3 12 -9 12 C-6 8 -3 4 0 0 Z " fill="#377F8B" transform="translate(369,108)"/>
<path d="M0 0 C0.99 0 1.98 0 3 0 C3.33 0.99 3.66 1.98 4 3 C4 2.01 4 1.02 4 0 C4.99 0 5.98 0 7 0 C5.55746343 3.36591866 3.66735273 5.51047079 1 8 C0.26919734 6.02253397 -0.39421747 4.01927511 -1 2 C-0.67 1.34 -0.34 0.68 0 0 Z " fill="#E3ECE9" transform="translate(267,226)"/>
<path d="M0 0 C1.9375 0.3125 1.9375 0.3125 4 1 C4.33 1.99 4.66 2.98 5 4 C4.01 4.33 3.02 4.66 2 5 C4.97 5 7.94 5 11 5 C7.54754176 7.30163882 6.05261287 7.34490322 2 7 C0 5 0 5 -0.125 2.375 C-0.08375 1.59125 -0.0425 0.8075 0 0 Z " fill="#1D1F20" transform="translate(90,406)"/>
<path d="M0 0 C0.75 1.6875 0.75 1.6875 1 4 C-1.0603334 7.4613601 -2.49254958 8.7950681 -6.25 10.3125 C-7.61125 10.6528125 -7.61125 10.6528125 -9 11 C-8.60167969 10.54109375 -8.20335937 10.0821875 -7.79296875 9.609375 C-5.08857938 6.47728415 -2.42008229 3.36122541 0 0 Z " fill="#CDE3E4" transform="translate(416,154)"/>
<path d="M0 0 C0.33 0.66 0.66 1.32 1 2 C-2.14754098 8.64480874 -2.14754098 8.64480874 -5.25 9.9375 C-5.8275 9.958125 -6.405 9.97875 -7 10 C-6.34 8.02 -5.68 6.04 -5 4 C-4.34 4 -3.68 4 -3 4 C-2.67 3.01 -2.34 2.02 -2 1 C-1.34 0.67 -0.68 0.34 0 0 Z " fill="#287985" transform="translate(286,213)"/>
<path d="M0 0 C0.66 0 1.32 0 2 0 C2 1.32 2 2.64 2 4 C1.34 4 0.68 4 0 4 C0.04125 5.093125 0.0825 6.18625 0.125 7.3125 C0 11 0 11 -2 14 C-2.33 13.34 -2.66 12.68 -3 12 C-3.99 12.495 -3.99 12.495 -5 13 C-4.67 11.35 -4.34 9.7 -4 8 C-3.34 8 -2.68 8 -2 8 C-1.34 5.36 -0.68 2.72 0 0 Z " fill="#D3D3D1" transform="translate(311,106)"/>
<path d="M0 0 C0.99 0.66 1.98 1.32 3 2 C1.02 5.96 -0.96 9.92 -3 14 C-4.09071022 9.6371591 -3.73584474 8.88012354 -2 5 C-2 4.34 -2 3.68 -2 3 C-1.34 2.67 -0.68 2.34 0 2 C0 1.34 0 0.68 0 0 Z " fill="#222425" transform="translate(224,277)"/>
<path d="M0 0 C0.33 0.99 0.66 1.98 1 3 C-0.65234375 5.48046875 -0.65234375 5.48046875 -2.9375 8.1875 C-3.68902344 9.08855469 -4.44054687 9.98960937 -5.21484375 10.91796875 C-5.80394531 11.60503906 -6.39304687 12.29210937 -7 13 C-7.33 11.68 -7.66 10.36 -8 9 C-7.34 9 -6.68 9 -6 9 C-6 8.01 -6 7.02 -6 6 C-5.34 6 -4.68 6 -4 6 C-3.67 4.68 -3.34 3.36 -3 2 C-2.01 2 -1.02 2 0 2 C0 1.34 0 0.68 0 0 Z " fill="#DEEDEF" transform="translate(297,195)"/>
<path d="M0 0 C0.66 0.33 1.32 0.66 2 1 C1.01 2.485 1.01 2.485 0 4 C0 4.99 0 5.98 0 7 C0.66 7.33 1.32 7.66 2 8 C1.67 8.66 1.34 9.32 1 10 C-0.32 10 -1.64 10 -3 10 C-3.66 10.66 -4.32 11.32 -5 12 C-4.67 10.02 -4.34 8.04 -4 6 C-3.34 6 -2.68 6 -2 6 C-1.855625 5.195625 -1.71125 4.39125 -1.5625 3.5625 C-1 1 -1 1 0 0 Z " fill="#F9F8F3" transform="translate(189,358)"/>
<path d="M0 0 C0.99 0.33 1.98 0.66 3 1 C2.525625 1.5775 2.05125 2.155 1.5625 2.75 C-0.91694751 6.32040441 -1.12542579 9.47104594 -1.0625 13.75 C-1.05347656 14.54921875 -1.04445313 15.3484375 -1.03515625 16.171875 C-1.02355469 16.77515625 -1.01195312 17.3784375 -1 18 C-1.66 17.67 -2.32 17.34 -3 17 C-3.08126087 14.91731407 -3.13930839 12.83371342 -3.1875 10.75 C-3.22230469 9.58984375 -3.25710938 8.4296875 -3.29296875 7.234375 C-2.97982934 3.77731593 -2.34290892 2.48434437 0 0 Z " fill="#C0D8D9" transform="translate(264,235)"/>
<path d="M0 0 C1.9451 2.91765 2.45276317 4.62537285 3 8 C3.66 8 4.32 8 5 8 C5.33 9.65 5.66 11.3 6 13 C5.01 13 4.02 13 3 13 C0.33409063 8.44573816 -0.31563182 5.26053037 0 0 Z " fill="#2F3030" transform="translate(160,208)"/>
<path d="M0 0 C0 2.33333333 0 4.66666667 0 7 C-1.65 7.33 -3.3 7.66 -5 8 C-5 8.66 -5 9.32 -5 10 C-6.32 10.33 -7.64 10.66 -9 11 C-6.36113346 6.7973607 -3.63559661 3.43361902 0 0 Z " fill="#D1E5E8" transform="translate(403,169)"/>
<path d="M0 0 C0.66 0 1.32 0 2 0 C2.8125 2.1875 2.8125 2.1875 3 5 C0.84381063 7.56411708 -0.99099627 9.49549813 -4 11 C-3.71125 10.29875 -3.4225 9.5975 -3.125 8.875 C-1.97866412 5.94547497 -0.97374346 2.99078347 0 0 Z " fill="#DBDBD7" transform="translate(210,311)"/>
<path d="M0 0 C0.99 0.33 1.98 0.66 3 1 C3 3 3 3 0.6875 5.5625 C-2 8 -2 8 -5 9 C-4.42647107 5.12867972 -2.51295648 2.91827204 0 0 Z " fill="#DEEAE8" transform="translate(379,196)"/>
<path d="M0 0 C0.99 0.33 1.98 0.66 3 1 C3.33 2.65 3.66 4.3 4 6 C4.66 6 5.32 6 6 6 C6.33 7.32 6.66 8.64 7 10 C6.01 10 5.02 10 4 10 C4 9.01 4 8.02 4 7 C3.34 7 2.68 7 2 7 C0.5393715 4.35261084 0 3.10551666 0 0 Z " fill="#E1E1DF" transform="translate(95,225)"/>
<path d="M0 0 C0.99 0 1.98 0 3 0 C2.58578031 4.83256305 0.53586014 6.82679218 -3 10 C-3.33 9.01 -3.66 8.02 -4 7 C-2.71274093 5.29749607 -1.37868281 3.62935241 0 2 C0 1.34 0 0.68 0 0 Z " fill="#2D7A85" transform="translate(402,164)"/>
<path d="M0 0 C0.99 0.33 1.98 0.66 3 1 C3.94921875 3.06640625 3.94921875 3.06640625 4.6875 5.5625 C4.93886719 6.38878906 5.19023438 7.21507813 5.44921875 8.06640625 C5.63097656 8.70449219 5.81273438 9.34257813 6 10 C5.01 9.67 4.02 9.34 3 9 C2.29788106 7.34795544 1.63028587 5.68076231 1 4 C0.34 3.67 -0.32 3.34 -1 3 C-0.67 2.01 -0.34 1.02 0 0 Z " fill="#202424" transform="translate(108,108)"/>
<path d="M0 0 C0.99 0 1.98 0 3 0 C3.33 1.32 3.66 2.64 4 4 C4.66 4 5.32 4 6 4 C6 6.64 6 9.28 6 12 C3.4345406 9.4345406 3.45953913 7.52313332 3 4 C2.34 4 1.68 4 1 4 C0.67 2.68 0.34 1.36 0 0 Z " fill="#2D2F30" transform="translate(27,93)"/>
<path d="M0 0 C0.66 0 1.32 0 2 0 C6.09030544 5.14209827 6.09030544 5.14209827 5.75 8.375 C5.5025 8.91125 5.255 9.4475 5 10 C0 4.5 0 4.5 0 0 Z " fill="#2F7881" transform="translate(367,393)"/>
<path d="M0 0 C3.17538332 0.34021964 4.02276865 1.02466604 6.25 3.4375 C8 6 8 6 8 8 C7.01 8.33 6.02 8.66 5 9 C4.87625 8.071875 4.87625 8.071875 4.75 7.125 C4.18741541 4.81562433 4.18741541 4.81562433 1.9375 3.75 C1.298125 3.5025 0.65875 3.255 0 3 C0 2.01 0 1.02 0 0 Z " fill="#C4DDDF" transform="translate(342,365)"/>
<path d="M0 0 C0.66 0 1.32 0 2 0 C3 3 3 3 1.6875 5.6875 C1.130625 6.450625 0.57375 7.21375 0 8 C-0.66 8 -1.32 8 -2 8 C-2.33 8.99 -2.66 9.98 -3 11 C-3.33 10.34 -3.66 9.68 -4 9 C-3.67 8.01 -3.34 7.02 -3 6 C-2.34 6 -1.68 6 -1 6 C-0.67 4.02 -0.34 2.04 0 0 Z " fill="#C1C1BF" transform="translate(200,331)"/>
<path d="M0 0 C1.98 0.99 3.96 1.98 6 3 C6 3.99 6 4.98 6 6 C6.66 6 7.32 6 8 6 C7.67 7.32 7.34 8.64 7 10 C2 4.25 2 4.25 2 2 C1.34 2 0.68 2 0 2 C0 1.34 0 0.68 0 0 Z " fill="#CEE3E3" transform="translate(399,318)"/>
<path d="M0 0 C0.66 0 1.32 0 2 0 C1.38722388 2.96175123 0.74627478 4.38058783 -1 7 C-2.32 7 -3.64 7 -5 7 C-4.67 6.01 -4.34 5.02 -4 4 C-3.34 4 -2.68 4 -2 4 C-1.34 2.68 -0.68 1.36 0 0 Z " fill="#D8E9ED" transform="translate(389,185)"/>
<path d="M0 0 C0 3 0 3 -2 6 C-2.99 6.33 -3.98 6.66 -5 7 C-5 7.99 -5 8.98 -5 10 C-5.99 9.34 -6.98 8.68 -8 8 C-7.04578192 6.85073734 -6.08647955 5.70569459 -5.125 4.5625 C-4.59132813 3.92441406 -4.05765625 3.28632813 -3.5078125 2.62890625 C-2 1 -2 1 0 0 Z " fill="#377D87" transform="translate(335,152)"/>
<path d="M0 0 C0.99 0 1.98 0 3 0 C2.71125 0.70125 2.4225 1.4025 2.125 2.125 C0.97866412 5.05452503 -0.02625654 8.00921653 -1 11 C-3 8 -3 8 -2.75 6.0625 C-1.97936717 3.94325972 -1.0643413 1.98677042 0 0 Z " fill="#E1E0DD" transform="translate(243,92)"/>
<path d="M0 0 C0.99 0 1.98 0 3 0 C5 3 5 3 5 6 C6.32 6.66 7.64 7.32 9 8 C9 8.66 9 9.32 9 10 C6.00675737 8.9024777 5.15389099 8.32317108 3.75 5.375 C3.5025 4.59125 3.255 3.8075 3 3 C2.34 3 1.68 3 1 3 C0.67 2.01 0.34 1.02 0 0 Z " fill="#367883" transform="translate(357,382)"/>
<path d="M0 0 C2.96404505 2.80804268 5.44499019 5.18315774 7 9 C4.28902773 8.62607279 3.17999533 8.18642373 1.25 6.1875 C0 4 0 4 0 0 Z " fill="#3A7D87" transform="translate(405,327)"/>
<path d="M0 0 C0.66 0.99 1.32 1.98 2 3 C1.1875 4.9375 1.1875 4.9375 0 7 C-0.99 7.33 -1.98 7.66 -3 8 C-3 8.66 -3 9.32 -3 10 C-3.66 9.67 -4.32 9.34 -5 9 C-3.35 6.03 -1.7 3.06 0 0 Z " fill="#CECDCB" transform="translate(224,284)"/>
<path d="M0 0 C0.66 0.33 1.32 0.66 2 1 C2 1.66 2 2.32 2 3 C2.66 3 3.32 3 4 3 C4.66 4.98 5.32 6.96 6 9 C2.66476748 7.61990379 0.81392049 6.15049348 -1 3 C-0.67 2.01 -0.34 1.02 0 0 Z " fill="#317B89" transform="translate(281,276)"/>
<path d="M0 0 C0.33 0.66 0.66 1.32 1 2 C0.67 2.66 0.34 3.32 0 4 C0.66 4.33 1.32 4.66 2 5 C0.625 6.5 0.625 6.5 -1 8 C-1.66 8 -2.32 8 -3 8 C-3 8.99 -3 9.98 -3 11 C-3.66 11 -4.32 11 -5 11 C-3.55049545 7.2089881 -1.84827434 3.6125362 0 0 Z " fill="#CBCBC8" transform="translate(258,215)"/>
<path d="M0 0 C1.12377697 3.30435084 0.89554742 5.0506862 -0.4375 8.25 C-0.72496094 8.95640625 -1.01242187 9.6628125 -1.30859375 10.390625 C-1.53675781 10.92171875 -1.76492188 11.4528125 -2 12 C-2.99 11.67 -3.98 11.34 -5 11 C-4.34 9.35 -3.68 7.7 -3 6 C-2.34 6 -1.68 6 -1 6 C-0.67 4.02 -0.34 2.04 0 0 Z " fill="#C5C6C4" transform="translate(274,181)"/>
<path d="M0 0 C0.33 0 0.66 0 1 0 C1.33 2.31 1.66 4.62 2 7 C1.01 7.33 0.02 7.66 -1 8 C-2.20882096 10.00016466 -2.20882096 10.00016466 -3 12 C-3.66 11.67 -4.32 11.34 -5 11 C-3.35 7.37 -1.7 3.74 0 0 Z " fill="#323536" transform="translate(200,184)"/>
<path d="M0 0 C-0.47202486 4.24822374 -2.96655518 6.19989709 -6 9 C-6.66 8.67 -7.32 8.34 -8 8 C-6.48291727 4.46014029 -4.24676932 0 0 0 Z " fill="#2E7782" transform="translate(394,178)"/>
<path d="M0 0 C1.29222745 3.87668235 0.64738884 5.62905894 -1.0625 9.25 C-1.371875 9.8275 -1.68125 10.405 -2 11 C-2.99 11 -3.98 11 -5 11 C-4.731875 10.484375 -4.46375 9.96875 -4.1875 9.4375 C-2.67650593 6.33598585 -1.34427274 3.17737194 0 0 Z " fill="#D9D9D5" transform="translate(298,134)"/>
<path d="M0 0 C0 0.99 0 1.98 0 3 C-0.66 3 -1.32 3 -2 3 C-2.268125 3.969375 -2.53625 4.93875 -2.8125 5.9375 C-3.204375 6.948125 -3.59625 7.95875 -4 9 C-4.99 9.33 -5.98 9.66 -7 10 C-5.76075855 5.04303419 -4.21422242 2.88341534 0 0 Z " fill="#257480" transform="translate(376,102)"/>
<path d="M0 0 C1.65 0 3.3 0 5 0 C4.34 1.98 3.68 3.96 3 6 C2.34 4.68 1.68 3.36 1 2 C0.67 3.32 0.34 4.64 0 6 C-0.66 6 -1.32 6 -2 6 C-1.34 4.02 -0.68 2.04 0 0 Z " fill="#DEDCD8" transform="translate(101,376)"/>
<path d="M0 0 C0.33 0.66 0.66 1.32 1 2 C0.01 3.485 0.01 3.485 -1 5 C-1.66 5 -2.32 5 -3 5 C-3.33 5.66 -3.66 6.32 -4 7 C-4.33 6.01 -4.66 5.02 -5 4 C-5.66 4 -6.32 4 -7 4 C-6.67 3.34 -6.34 2.68 -6 2 C-5.01 2.33 -4.02 2.66 -3 3 C-3 2.34 -3 1.68 -3 1 C-2.01 0.67 -1.02 0.34 0 0 Z " fill="#E1E9E5" transform="translate(446,369)"/>
<path d="M0 0 C0.33 0 0.66 0 1 0 C1 1.65 1 3.3 1 5 C1.66 5.33 2.32 5.66 3 6 C1.35 6.66 -0.3 7.32 -2 8 C-2 8.99 -2 9.98 -2 11 C-2.66 11 -3.32 11 -4 11 C-3.67 9.35 -3.34 7.7 -3 6 C-2.34 6 -1.68 6 -1 6 C-0.67 4.02 -0.34 2.04 0 0 Z " fill="#C2C3BF" transform="translate(264,201)"/>
<path d="M0 0 C0.66 0.33 1.32 0.66 2 1 C0.02 3.31 -1.96 5.62 -4 8 C-4.66 7.01 -5.32 6.02 -6 5 C-4.02 3.35 -2.04 1.7 0 0 Z " fill="#E5F0EE" transform="translate(396,179)"/>
<path d="M0 0 C0.66 0 1.32 0 2 0 C2 0.66 2 1.32 2 2 C2.639375 2.2475 3.27875 2.495 3.9375 2.75 C6 4 6 4 6.75 6.125 C6.8325 6.74375 6.915 7.3625 7 8 C6.01 8.33 5.02 8.66 4 9 C3.67 7.35 3.34 5.7 3 4 C2.34 4 1.68 4 1 4 C0.67 2.68 0.34 1.36 0 0 Z " fill="#393B3C" transform="translate(38,115)"/>
<path d="M0 0 C0.66 0 1.32 0 2 0 C1.125 4.75 1.125 4.75 0 7 C-0.66 7 -1.32 7 -2 7 C-2 7.66 -2 8.32 -2 9 C-2.66 8.67 -3.32 8.34 -4 8 C-2.68 5.36 -1.36 2.72 0 0 Z " fill="#2C2E2F" transform="translate(246,92)"/>
<path d="M0 0 C0.99 0.33 1.98 0.66 3 1 C2.01 1.495 2.01 1.495 1 2 C0.27306096 3.97888961 -0.39816251 5.97954558 -1 8 C-1.66 8 -2.32 8 -3 8 C-2.25 2.25 -2.25 2.25 0 0 Z " fill="#E3E4E0" transform="translate(195,344)"/>
<path d="M0 0 C1.37562854 1.28965176 2.70766393 2.62689293 4 4 C4 4.66 4 5.32 4 6 C4.66 6 5.32 6 6 6 C6.33 6.99 6.66 7.98 7 9 C6.01 9 5.02 9 4 9 C0.8217901 5.7309841 0 4.67834007 0 0 Z " fill="#E1EDEE" transform="translate(408,327)"/>
<path d="M0 0 C0.33 0.66 0.66 1.32 1 2 C0.0625 4.625 0.0625 4.625 -1 7 C-1.66 7 -2.32 7 -3 7 C-3.33 7.99 -3.66 8.98 -4 10 C-4.66 10 -5.32 10 -6 10 C-6 8.35 -6 6.7 -6 5 C-4.68 5.33 -3.36 5.66 -2 6 C-1.855625 5.195625 -1.71125 4.39125 -1.5625 3.5625 C-1 1 -1 1 0 0 Z " fill="#BCBCB9" transform="translate(138,312)"/>
<path d="M0 0 C1.2380014 3.57644848 0.74926071 6.33694766 0 10 C-1.32 10.33 -2.64 10.66 -4 11 C-3.21681311 7.08406554 -1.60820142 3.63593365 0 0 Z " fill="#C5C6C3" transform="translate(247,236)"/>
<path d="M0 0 C0.66 0.66 1.32 1.32 2 2 C2.66 1.67 3.32 1.34 4 1 C4.33 2.32 4.66 3.64 5 5 C4.01 5.66 3.02 6.32 2 7 C0.68 5.68 -0.64 4.36 -2 3 C-1.34 2.01 -0.68 1.02 0 0 Z " fill="#242629" transform="translate(154,202)"/>
<path d="M0 0 C0.99 0.33 1.98 0.66 3 1 C3.33 1.99 3.66 2.98 4 4 C2.68 4.99 1.36 5.98 0 7 C-0.66 5.35 -1.32 3.7 -2 2 C-1.34 1.34 -0.68 0.68 0 0 Z " fill="#237D8A" transform="translate(394,172)"/>
<path d="M0 0 C0.66 0 1.32 0 2 0 C1.67 1.32 1.34 2.64 1 4 C-0.65 4.33 -2.3 4.66 -4 5 C-4 5.66 -4 6.32 -4 7 C-3.34 7.33 -2.68 7.66 -2 8 C-3.32 7.67 -4.64 7.34 -6 7 C-5.25 5.0625 -5.25 5.0625 -4 3 C-1.875 2.25 -1.875 2.25 0 2 C0 1.34 0 0.68 0 0 Z " fill="#197C8A" transform="translate(326,165)"/>
<path d="M0 0 C0 3.80845564 -0.97798569 5.79266696 -3 9 C-5.6875 9.875 -5.6875 9.875 -8 10 C-7.04367001 8.70684939 -6.08486149 7.41553147 -5.125 6.125 C-4.59132813 5.40570313 -4.05765625 4.68640625 -3.5078125 3.9453125 C-2 2 -2 2 0 0 Z " fill="#D4E9E8" transform="translate(447,119)"/>
<path d="M0 0 C0.66 0.33 1.32 0.66 2 1 C1.67 2.65 1.34 4.3 1 6 C0.01 6.33 -0.98 6.66 -2 7 C-2.66 5.68 -3.32 4.36 -4 3 C-3.34 3 -2.68 3 -2 3 C-1.34 2.01 -0.68 1.02 0 0 Z " fill="#307E89" transform="translate(466,92)"/>
<path d="M0 0 C1.231394 2.46278801 1.07159196 4.2795055 1 7 C-0.32 7.33 -1.64 7.66 -3 8 C-3 8.99 -3 9.98 -3 11 C-3.66 10.67 -4.32 10.34 -5 10 C-3.35 6.7 -1.7 3.4 0 0 Z " fill="#BBBBB9" transform="translate(174,386)"/>
<path d="M0 0 C2.4375 0.6875 2.4375 0.6875 5 2 C5.8125 4.625 5.8125 4.625 6 7 C4.125 6.875 4.125 6.875 2 6 C0.75 2.9375 0.75 2.9375 0 0 Z " fill="#2C777F" transform="translate(336,352)"/>
<path d="M0 0 C1.32 0.33 2.64 0.66 4 1 C5.125 2.9375 5.125 2.9375 6 5 C6.66 5.66 7.32 6.32 8 7 C7.34 7.66 6.68 8.32 6 9 C4.02 6.03 2.04 3.06 0 0 Z " fill="#D3E5E7" transform="translate(370,279)"/>
<path d="M0 0 C0.66 0.66 1.32 1.32 2 2 C1.75558954 4.52557477 1.17639341 5.7852602 -0.4375 7.75 C-2 9 -2 9 -4 9 C-3.71125 8.443125 -3.4225 7.88625 -3.125 7.3125 C-1.9586747 4.91505355 -0.9660119 2.48403061 0 0 Z " fill="#257680" transform="translate(440,121)"/>
<path d="M0 0 C0.66 0 1.32 0 2 0 C2.33 0.66 2.66 1.32 3 2 C3.99 2.33 4.98 2.66 6 3 C6 4.32 6 5.64 6 7 C6.66 7.33 7.32 7.66 8 8 C7.01 8 6.02 8 5 8 C3.61328125 6.50390625 3.61328125 6.50390625 2.3125 4.5625 C1.87550781 3.92441406 1.43851562 3.28632813 0.98828125 2.62890625 C0 1 0 1 0 0 Z " fill="#C5DEE2" transform="translate(447,382)"/>
<path d="M0 0 C0.33 0.66 0.66 1.32 1 2 C1.66 2 2.32 2 3 2 C4.32 4.31 5.64 6.62 7 9 C6.34 9 5.68 9 5 9 C5 8.34 5 7.68 5 7 C4.360625 6.773125 3.72125 6.54625 3.0625 6.3125 C1 5 1 5 0.25 2.375 C0.1675 1.59125 0.085 0.8075 0 0 Z " fill="#3A808B" transform="translate(438,371)"/>
<path d="M0 0 C0.33 0 0.66 0 1 0 C1.3125 3.3125 1.3125 3.3125 1 7 C-1.5 8.9375 -1.5 8.9375 -4 10 C-2.66666667 6.66666667 -1.33333333 3.33333333 0 0 Z " fill="#3E3F3F" transform="translate(116,355)"/>
<path d="M0 0 C1.9375 0.6875 1.9375 0.6875 4 2 C4.75 4.625 4.75 4.625 5 7 C3.0625 6.3125 3.0625 6.3125 1 5 C0.25 2.375 0.25 2.375 0 0 Z " fill="#E2EEEF" transform="translate(316,329)"/>
<path d="M0 0 C0.66 0 1.32 0 2 0 C1.625 2.9375 1.625 2.9375 1 6 C0.01 6.495 0.01 6.495 -1 7 C-1.33 7.99 -1.66 8.98 -2 10 C-2.66 9.67 -3.32 9.34 -4 9 C-2.68 6.03 -1.36 3.06 0 0 Z " fill="#B6B6B4" transform="translate(230,270)"/>
<path d="M0 0 C1.125 1.75 1.125 1.75 2 4 C1.125 6.25 1.125 6.25 0 8 C-0.99 7.67 -1.98 7.34 -3 7 C-1.125 1.125 -1.125 1.125 0 0 Z " fill="#1D1F23" transform="translate(241,241)"/>
<path d="M0 0 C2.1875 0.3125 2.1875 0.3125 4 1 C2.35 2.65 0.7 4.3 -1 6 C-1.66 5.01 -2.32 4.02 -3 3 C-1.75 1.4375 -1.75 1.4375 0 0 Z " fill="#E0E9EB" transform="translate(309,178)"/>
<path d="M0 0 C-0.1875 1.8125 -0.1875 1.8125 -1 4 C-3.4375 5.8125 -3.4375 5.8125 -6 7 C-6.66 6.67 -7.32 6.34 -8 6 C-7.0479279 4.99403703 -6.08812654 3.99538437 -5.125 3 C-4.59132813 2.443125 -4.05765625 1.88625 -3.5078125 1.3125 C-2 0 -2 0 0 0 Z " fill="#D3E7E9" transform="translate(438,132)"/>
<path d="M0 0 C0.99 0 1.98 0 3 0 C1.9024777 2.99324263 1.32317108 3.84610901 -1.625 5.25 C-2.40875 5.4975 -3.1925 5.745 -4 6 C-1.125 1.125 -1.125 1.125 0 0 Z " fill="#C9DFE2" transform="translate(458,106)"/>
<path d="M0 0 C2 3 2 3 2 5 C2.66 5 3.32 5 4 5 C4.33 6.32 4.66 7.64 5 9 C2.5625 8.1875 2.5625 8.1875 0 7 C-1.04449911 3.86650268 -0.93423645 3.01031744 0 0 Z " fill="#CACAC8" transform="translate(33,105)"/>
<path d="M0 0 C0.66 0 1.32 0 2 0 C4.1875 2.8125 4.1875 2.8125 6 6 C5.67 6.99 5.34 7.98 5 9 C0 3.375 0 3.375 0 0 Z " fill="#2C747D" transform="translate(423,352)"/>
<path d="M0 0 C1.875 0.1875 1.875 0.1875 4 1 C5.125 3.4375 5.125 3.4375 6 6 C6.66 6.66 7.32 7.32 8 8 C7.01 8 6.02 8 5 8 C3.61328125 6.50390625 3.61328125 6.50390625 2.3125 4.5625 C1.87550781 3.92441406 1.43851562 3.28632813 0.98828125 2.62890625 C0 1 0 1 0 0 Z " fill="#BFDBDB" transform="translate(387,302)"/>
<path d="M0 0 C0.99 0 1.98 0 3 0 C2.34 1.98 1.68 3.96 1 6 C0.01 6 -0.98 6 -2 6 C-1.34 4.02 -0.68 2.04 0 0 Z " fill="#D8D8D4" transform="translate(241,249)"/>
<path d="M0 0 C1.65 0 3.3 0 5 0 C4.34 1.98 3.68 3.96 3 6 C2.34 6 1.68 6 1 6 C0.67 4.02 0.34 2.04 0 0 Z " fill="#E7E7E5" transform="translate(173,229)"/>
<path d="M0 0 C0.9590625 0.2784375 0.9590625 0.2784375 1.9375 0.5625 C2.9584375 0.7790625 2.9584375 0.7790625 4 1 C4.33 0.67 4.66 0.34 5 0 C5.66 0 6.32 0 7 0 C6.67 0.99 6.34 1.98 6 3 C4.0625 3.8125 4.0625 3.8125 2 4 C1.34 3.34 0.68 2.68 0 2 C0 1.34 0 0.68 0 0 Z " fill="#272A2C" transform="translate(155,408)"/>
<path d="M0 0 C1 2 1 2 0.0625 5.125 C-0.288125 6.07375 -0.63875 7.0225 -1 8 C-1.66 8 -2.32 8 -3 8 C-3.33 8.66 -3.66 9.32 -4 10 C-3.67 8.02 -3.34 6.04 -3 4 C-2.34 4 -1.68 4 -1 4 C-0.67 2.68 -0.34 1.36 0 0 Z " fill="#0C0D0F" transform="translate(135,322)"/>
<path d="M0 0 C1.31223496 3.93670488 0.24296256 6.12488144 -1 10 C-1.33 10 -1.66 10 -2 10 C-2 7.03 -2 4.06 -2 1 C-1.34 0.67 -0.68 0.34 0 0 Z " fill="#257282" transform="translate(265,239)"/>
<path d="M0 0 C0 0.66 0 1.32 0 2 C-0.99 2.495 -0.99 2.495 -2 3 C-2 4.32 -2 5.64 -2 7 C-2.99 6.67 -3.98 6.34 -5 6 C-4.625 3.5625 -4.625 3.5625 -4 1 C-2 0 -2 0 0 0 Z " fill="#207584" transform="translate(294,206)"/>
<path d="M0 0 C0.33 0.66 0.66 1.32 1 2 C0.34 2 -0.32 2 -1 2 C-1.33 3.65 -1.66 5.3 -2 7 C-2.99 7 -3.98 7 -5 7 C-4.60196439 4.11424181 -4.20990931 3.17810487 -1.9375 1.25 C-1.298125 0.8375 -0.65875 0.425 0 0 Z " fill="#E9F2F5" transform="translate(409,164)"/>
<path d="M0 0 C2.91227269 3.28804981 4.49701212 5.59885603 5 10 C4.67 9.34 4.34 8.68 4 8 C3.34 8 2.68 8 2 8 C0.74335022 5.09399739 0 3.20395416 0 0 Z " fill="#0C0E10" transform="translate(49,131)"/>
<path d="M0 0 C1 2 1 2 0.25 4.5 C-1 7 -1 7 -4 9 C-2.25 2.25 -2.25 2.25 0 0 Z " fill="#0B0F10" transform="translate(228,132)"/>
<path d="M0 0 C0.66 0 1.32 0 2 0 C2.33 1.65 2.66 3.3 3 5 C1.68 5 0.36 5 -1 5 C-0.67 3.35 -0.34 1.7 0 0 Z M3 0 C3.66 0 4.32 0 5 0 C4.67 0.99 4.34 1.98 4 3 C3.67 2.01 3.34 1.02 3 0 Z " fill="#2E3232" transform="translate(237,109)"/>
<path d="M0 0 C4.875 4.75 4.875 4.75 6 7 C4.68 6.67 3.36 6.34 2 6 C2 5.34 2 4.68 2 4 C1.34 4 0.68 4 0 4 C0 2.68 0 1.36 0 0 Z " fill="#3B808B" transform="translate(455,394)"/>
<path d="M0 0 C0.33 1.32 0.66 2.64 1 4 C0.34 4 -0.32 4 -1 4 C-1.33 5.32 -1.66 6.64 -2 8 C-2.99 7.67 -3.98 7.34 -5 7 C-4.67 6.01 -4.34 5.02 -4 4 C-1.9375 3.3125 -1.9375 3.3125 0 3 C0 2.01 0 1.02 0 0 Z " fill="#292B2C" transform="translate(110,370)"/>
<path d="M0 0 C2.52588702 2.36292656 3.88820837 3.66462511 5 7 C4.01 7.495 4.01 7.495 3 8 C3 7.34 3 6.68 3 6 C2.01 5.67 1.02 5.34 0 5 C0 3.35 0 1.7 0 0 Z " fill="#D1E4E5" transform="translate(303,309)"/>
<path d="M0 0 C0.66 0 1.32 0 2 0 C1.67 1.65 1.34 3.3 1 5 C0.34 5 -0.32 5 -1 5 C-1.33 5.99 -1.66 6.98 -2 8 C-2.33 7.34 -2.66 6.68 -3 6 C-2.06553465 3.96855359 -1.06775224 1.96466413 0 0 Z " fill="#464748" transform="translate(182,220)"/>
<path d="M0 0 C2.91227269 3.28804981 4.49701212 5.59885603 5 10 C4.67 9.34 4.34 8.68 4 8 C3.34 8 2.68 8 2 8 C0.74335022 5.09399739 0 3.20395416 0 0 Z " fill="#0B0E10" transform="translate(93,214)"/>
<path d="M0 0 C0.66 0.33 1.32 0.66 2 1 C0.7260411 3.03833424 -0.61061923 5.03852126 -2 7 C-2.66 7 -3.32 7 -4 7 C-3.43628586 3.73045798 -2.50037734 2.17424117 0 0 Z " fill="#29737C" transform="translate(300,195)"/>
<path d="M0 0 C0.66 0 1.32 0 2 0 C2.433125 0.9590625 2.433125 0.9590625 2.875 1.9375 C3.82823451 4.15206079 3.82823451 4.15206079 6 5 C5.34 6.32 4.68 7.64 4 9 C3.3309224 7.68872739 2.66480194 6.3759455 2 5.0625 C1.62875 4.33160156 1.2575 3.60070312 0.875 2.84765625 C0 1 0 1 0 0 Z " fill="#BFC0BE" transform="translate(138,165)"/>
<path d="M0 0 C0.66 0.99 1.32 1.98 2 3 C-0.05233685 5.2477975 -1.00667261 6.0022242 -4 7 C-2.79618552 4.50638429 -1.54571278 2.31856917 0 0 Z " fill="#42868C" transform="translate(325,162)"/>
<path d="M0 0 C0.33 0.99 0.66 1.98 1 3 C-0.28965176 4.37562854 -1.62689293 5.70766393 -3 7 C-3.66 7 -4.32 7 -5 7 C-3.70700306 4.11562221 -2.34058637 2.12780579 0 0 Z " fill="#237078" transform="translate(411,157)"/>
<path d="M0 0 C0.66 0 1.32 0 2 0 C1.34 1.98 0.68 3.96 0 6 C0.66 6.33 1.32 6.66 2 7 C1.01 7.66 0.02 8.32 -1 9 C-2.25541557 5.23375329 -1.37061958 3.62811066 0 0 Z " fill="#CACAC8" transform="translate(301,126)"/>
</svg>
